PathFileType	4	(X/Y/Z)	TVC_60_BWA03_walk_RCNL2025.trc
DataRate	CameraRate	NumFrames	NumMarkers	Units	OrigDataRate	OrigDataStartFrame	OrigNumFrames
100	100	11	27	mm	100	138	275
Frame#	Time	R_Shoulder			L_Shoulder			C7			J_Notch			R_Elbow			L_Elbow			R_Wrist			L_Wrist			R_Asis			L_Asis			R_Psis			L_Psis			Sacral			Thoracic			Sternum			R_Thigh_Lateral			R_Knee_Lateral			R_Shank_Lateral			R_Ankle_Lateral			R_Heel			R_Toe			L_Thigh_Lateral			L_Knee_Lateral			L_Shank_Lateral			L_Ankle_Lateral			L_Heel			L_Toe		
		X1	Y1	Z1	X2	Y2	Z2	X3	Y3	Z3	X4	Y4	Z4	X5	Y5	Z5	X6	Y6	Z6	X7	Y7	Z7	X8	Y8	Z8	X9	Y9	Z9	X10	Y10	Z10	X11	Y11	Z11	X12	Y12	Z12	X13	Y13	Z13	X14	Y14	Z14	X15	Y15	Z15	X16	Y16	Z16	X17	Y17	Z17	X18	Y18	Z18	X19	Y19	Z19	X20	Y20	Z20	X21	Y21	Z21	X22	Y22	Z22	X23	Y23	Z23	X24	Y24	Z24	X25	Y25	Z25	X26	Y26	Z26	X27	Y27	Z27
138	1.37000000	-677.951416	1304.692749	109.692055	-679.437744	1331.162109	-243.551346	-731.932678	1387.113892	-72.167015	-627.587402	1253.695435	-71.161575	-816.899841	1000.557861	184.078064	-685.707275	991.176025	-324.697784	-811.328705	767.901031	236.753868	-567.552795	791.675476	-367.430542	-656.035950	896.904480	76.034241	-671.978394	901.605652	-211.730591	-835.070923	894.231445	4.919113	-842.066223	901.171082	-104.179016	-838.568573	897.701263	-49.629951	-794.969482	1180.815796	-68.596321	-608.399109	1058.449341	-61.324986	-607.479675	602.123718	160.362427	-514.516846	469.011993	92.175156	-471.425476	258.232941	129.866867	-435.486725	83.832413	63.069965	-466.818634	68.613937	7.104890	-306.695740	100.971527	76.671753	-786.428101	615.599121	-256.690948	-762.211975	430.088165	-176.220963	-834.362000	248.939041	-199.777313	-902.489441	65.196518	-113.838387	-947.510803	72.840012	-72.507355	-779.060608	42.290054	-102.430344
139	1.38000000	-669.427063	1304.183472	110.212975	-671.537842	1330.191650	-243.131317	-723.499451	1386.364258	-71.672165	-619.240479	1252.910522	-70.768593	-810.671936	1001.202454	184.857666	-676.574829	990.237061	-324.247223	-807.256714	768.660309	238.141548	-557.501068	791.314362	-367.121048	-647.220215	895.898071	76.490982	-664.611877	901.026794	-211.242752	-826.532043	893.568726	6.370964	-834.117004	900.703308	-102.619789	-830.324524	897.136017	-48.124413	-786.544373	1180.070923	-67.590057	-600.153320	1057.615112	-60.911118	-600.236267	600.356323	159.901260	-506.888641	467.954529	91.398277	-458.435089	258.776794	129.711212	-418.339386	84.570015	63.182693	-449.994690	68.495560	7.482072	-289.372009	104.644424	75.226883	-783.554443	615.492554	-256.149689	-758.522644	430.111023	-176.030151	-832.427734	249.709091	-199.636963	-902.060486	66.385498	-113.894272	-946.964600	74.482521	-72.545578	-778.960754	42.293438	-102.514061
140	1.39000000	-660.793945	1303.696655	110.811203	-663.605957	1329.248779	-242.631531	-715.007263	1385.637207	-71.087212	-610.812805	1252.164307	-70.307564	-804.237549	1001.849487	185.720337	-667.566162	989.315979	-323.659729	-802.921265	769.432556	239.577553	-547.663544	790.919159	-366.691544	-638.260925	894.925110	76.981644	-657.163879	900.506592	-210.706802	-817.846436	892.905029	7.895363	-826.033508	900.243042	-100.978127	-821.939972	896.574036	-46.541382	-778.027771	1179.333374	-66.502449	-591.807190	1056.813354	-60.441483	-592.792175	598.595764	159.397507	-499.103088	466.878815	90.673737	-446.267426	259.146698	129.457764	-402.917847	85.134857	63.046940	-434.861786	68.358879	7.556560	-273.839447	107.695175	73.780098	-780.478699	615.458862	-255.637161	-754.655457	430.202820	-175.866180	-830.357300	250.596313	-199.528259	-901.558716	67.717575	-114.001953	-946.344421	76.309822	-72.645340	-778.835266	42.311768	-102.624016
141	1.40000000	-652.049561	1303.235840	111.488953	-655.634949	1328.342529	-242.047928	-706.453552	1384.939209	-70.409302	-602.301147	1251.463501	-69.774895	-797.585144	1002.496521	186.666656	-658.682251	988.421692	-322.935699	-798.310425	770.213959	241.066750	-538.047882	790.493805	-366.143341	-629.153992	893.991760	77.504318	-649.620483	900.044006	-210.126266	-809.008057	892.245605	9.484041	-817.803955	899.792908	-99.263214	-813.406006	896.019257	-44.889586	-769.416382	1178.609253	-65.336777	-583.352844	1056.051147	-59.915474	-585.047974	596.918823	158.909653	-491.141510	465.789185	90.013222	-434.984894	259.233002	129.100281	-389.288727	85.407616	62.638199	-421.466888	68.101372	7.295235	-260.162323	109.937172	72.371506	-777.186768	615.488647	-255.160522	-750.598083	430.357697	-175.734375	-828.132935	251.593658	-199.457687	-900.979858	69.193207	-114.168419	-945.646423	78.323509	-72.817406	-778.679382	42.346863	-102.760216
142	1.41000000	-643.191956	1302.804443	112.247856	-647.618347	1327.481201	-241.377197	-697.836121	1384.276245	-69.636253	-593.702881	1250.814941	-69.167511	-790.703613	1003.140808	187.696945	-649.923767	987.562866	-322.075745	-793.411957	771.000458	242.614044	-528.661407	790.042664	-365.478241	-619.896362	893.103271	78.057220	-641.965576	899.635498	-209.504852	-800.012390	891.596375	11.128190	-809.417053	899.355652	-97.485397	-804.714722	895.476013	-43.178604	-760.707581	1177.904053	-64.096825	-574.782104	1055.335205	-59.332664	-576.911743	595.399414	158.502625	-482.994843	464.687592	89.426781	-424.630432	258.942688	128.635834	-377.473694	85.292206	61.947788	-409.821533	67.636925	6.688422	-248.358490	111.223152	71.022568	-773.669800	615.571777	-254.725418	-746.341370	430.569153	-175.638123	-825.740295	252.692169	-199.429565	-900.320679	70.810349	-114.398628	-944.867188	80.522034	-73.069939	-778.488281	42.400402	-102.921829
143	1.42000000	-634.219849	1302.405762	113.088959	-639.549988	1326.672974	-240.616776	-689.153442	1383.654663	-68.766579	-585.015808	1250.225098	-68.482849	-783.582458	1003.778992	188.811188	-641.291138	986.748108	-321.080963	-788.213501	771.787689	244.224373	-519.510895	789.570160	-364.698578	-610.486389	892.264526	78.638809	-634.180725	899.275696	-208.845963	-790.856323	890.964355	12.818497	-800.862488	898.934265	-95.656197	-795.859406	894.949310	-41.418850	-751.899719	1177.223877	-62.786877	-566.087036	1054.672852	-58.692799	-568.311951	594.096497	158.236069	-474.663177	463.574921	88.922264	-415.223602	258.209167	128.064896	-367.444427	84.723305	60.984276	-399.897552	66.902351	5.751814	-238.393829	111.458336	69.734978	-769.923523	615.698059	-254.335159	-741.879089	430.830444	-175.578552	-823.169434	253.882156	-199.446030	-899.578979	72.564888	-114.695442	-944.003723	82.901009	-73.408066	-778.257263	42.473557	-103.107323
144	1.43000000	-625.133118	1302.042847	114.012657	-631.424194	1325.925293	-239.765045	-680.404419	1383.079956	-67.799622	-576.238586	1249.699951	-67.718987	-776.212036	1004.407715	190.009003	-632.784485	985.985413	-319.952820	-782.702423	772.571136	245.902359	-510.602615	789.080963	-363.807190	-600.924255	891.480103	79.247902	-626.245483	898.957397	-208.152298	-781.538818	890.357544	14.545157	-792.131592	898.532227	-93.788338	-786.835205	894.444885	-39.621590	-742.991882	1176.574463	-61.411732	-557.260071	1054.071167	-57.995758	-559.210999	593.043030	158.152802	-466.154694	462.452240	88.505005	-406.756378	256.998901	127.392189	-359.120819	83.671783	59.773491	-391.623840	65.863274	4.524896	-230.179855	110.607239	68.492706	-765.947327	615.857117	-253.989807	-737.206970	431.135040	-175.554153	-820.415161	255.154526	-199.507370	-898.753174	74.451347	-115.059647	-943.052856	85.453934	-73.833641	-777.981323	42.566566	-103.314590
145	1.44000000	-615.932678	1301.718872	115.018715	-623.235657	1325.245728	-238.821274	-671.588501	1382.557861	-66.735580	-567.370483	1249.245605	-66.874664	-768.583801	1005.023193	191.289597	-624.403625	985.282715	-318.693268	-776.866058	773.345917	247.652237	-501.942352	788.579956	-362.807358	-591.212219	890.754578	79.883904	-618.137878	898.672546	-207.425293	-772.061157	889.785217	16.297888	-783.217407	898.153503	-91.895668	-777.639282	893.969360	-37.798890	-733.984375	1175.961792	-59.976719	-548.294495	1053.537842	-57.241535	-549.617371	592.237793	158.270035	-457.483765	461.322327	88.177780	-399.189758	255.315109	126.626442	-352.372253	82.147438	58.356972	-384.885345	64.517502	3.066812	-223.574341	108.694038	67.267036	-761.743164	616.039429	-253.685638	-732.321411	431.477112	-175.560730	-817.475891	256.501923	-199.612213	-897.841553	76.463730	-115.490135	-942.010925	88.173279	-74.345428	-777.655151	42.678371	-103.541100
146	1.45000000	-606.620789	1301.437134	116.106178	-614.979309	1324.640991	-237.785782	-662.705811	1382.093262	-65.575584	-558.411560	1248.867432	-65.949303	-760.690674	1005.621643	192.651718	-616.148010	984.647339	-317.304840	-770.691864	774.107239	249.477646	-493.535141	788.072205	-361.702744	-581.355347	890.093201	80.546997	-609.835510	898.413025	-206.664719	-762.427429	889.257568	18.065926	-774.115601	897.802795	-89.993111	-768.271515	893.530182	-35.963593	-724.878479	1175.391968	-58.487648	-539.184692	1053.080322	-56.430164	-539.592468	591.643250	158.575119	-448.669220	460.190765	87.940941	-392.450439	253.198746	125.779259	-347.022827	80.198608	56.789066	-379.525116	62.896015	1.450292	-218.385193	105.797630	66.023666	-757.314209	616.237488	-253.415192	-727.217896	431.852142	-175.591797	-814.352478	257.919708	-199.757904	-896.841064	78.596596	-115.984192	-940.872620	91.051910	-74.939484	-777.272949	42.806534	-103.783882
147	1.46000000	-597.201233	1301.200684	117.273354	-606.650269	1324.117676	-236.659882	-653.756836	1381.691406	-64.321754	-549.362732	1248.570312	-64.943062	-752.527222	1006.199341	194.093628	-608.016846	984.086426	-315.790619	-764.167175	774.849915	251.381493	-485.385330	787.562836	-360.497360	-571.361877	889.502014	81.238342	-601.316772	898.171387	-205.868347	-752.644470	888.785828	19.838078	-764.824890	897.485596	-88.096497	-758.734680	893.135712	-34.129210	-715.676636	1174.871094	-56.950790	-529.926819	1052.706543	-55.561661	-529.249207	591.190430	159.027420	-439.732239	459.066925	87.792770	-386.428711	250.726608	124.865829	-342.859955	77.908783	55.133320	-375.350830	61.061474	-0.244856	-214.377853	102.042488	64.730354	-752.662903	616.447144	-253.167923	-721.889160	432.257355	-175.639053	-811.046021	259.407043	-199.940674	-895.745850	80.846352	-116.538010	-939.629761	94.084862	-75.609802	-776.828552	42.947029	-104.039742
148	1.47000000	-587.679138	1301.013062	118.517776	-598.244080	1323.681885	-235.445923	-644.742798	1381.356567	-62.977173	-540.225708	1248.358765	-63.856842	-744.089966	1006.752747	195.613159	-600.008667	983.606628	-314.154419	-757.279633	775.569031	253.365723	-477.496429	787.057098	-359.195511	-561.243103	888.988281	81.960197	-592.562073	897.942078	-205.031754	-742.722473	888.381775	21.602791	-755.347168	897.207947	-86.222267	-749.034821	892.794861	-32.309738	-706.382568	1174.405518	-55.372807	-520.519226	1052.423828	-54.635941	-518.741638	590.792603	159.565536	-430.694550	457.964203	87.729965	-380.977783	248.008087	123.906425	-339.646149	75.389648	53.458626	-372.145813	59.104084	-1.937781	-211.287308	97.587395	63.363480	-747.788391	616.668091	-252.931030	-716.323181	432.691681	-175.693237	-807.555786	260.967224	-200.156143	-894.546082	83.212654	-117.147179	-938.269714	97.271172	-76.348923	-776.315979	43.093918	-104.305275
